<svg xmlns="http://www.w3.org/2000/svg" viewBox="0 0 663.08 402.21"><defs><style>.cls-1{fill:#fff;stroke:#000;stroke-miterlimit:10;stroke-width:5px;}</style></defs><g id="Layer_2" data-name="Layer 2"><g id="Layer_1-2" data-name="Layer 1"><path class="cls-1" d="M59.82,155.73c7.76,0,17.43,4,28,9.5,15.89,8.11,30.39,11.56,43.34,11.56,34.87,0,56.79-25.38,56.79-50.58a40.34,40.34,0,0,0-6.9-23.13c-14,14.5-41.26,16.4-41.26,16.4a144.72,144.72,0,0,1-15.19.69c-35,0-77.86-10-86-16.92a67.32,67.32,0,0,1,4.66,23.65c0,35-33.32,52.14-39.36,95.64A128.67,128.67,0,0,0,2.5,240.67c0,54,33,107.38,90.63,121.54a88.31,88.31,0,0,0,21.07,2.59c33.66,0,64.91-19.34,64.91-55.42A75.45,75.45,0,0,0,177,292.46c-16.75,9-33.32,14.16-48.34,14.16-23,0-42.64-11.57-55.07-39.19-4.49-9.67-6.74-19.51-6.74-27.62,0-10.54,4-18,12.09-18,4.83,0,11,2.42,19,8.46,18.64,14.16,37.81,22.1,52.65,22.1,16.06,0,27.11-9.15,27.11-29.52,0-6.39-1.21-13.81-3.46-22.62-8.8,10.7-18.64,14-28.65,14-13.47,0-27.8-5.86-41.61-7.76a88,88,0,0,0-9.32-.52c-26.42,0-37.46,16.74-37.46,37.46a73,73,0,0,0,4,23c-14.85-22.61-22.45-50.75-22.45-73C38.75,167.64,47.21,155.73,59.82,155.73Z"/><path class="cls-1" d="M400.08,141.75c0-35.39-27.45-52.66-52.13-52.66-16.06,0-31.77,7.25-40.57,22.1a23,23,0,0,1,9.49-2.24c23.48,0,29.18,46.26,32.63,65.94,1.9,11.4,2.93,26.42,2.93,42.64,0,30.73-3.45,65.61-8.8,88.4-4.14,17.6-8.8,24.17-13.29,24.17-7.43,0-14.5-17.44-18.82-31.6-14.85-49.37-18-80.27-29.52-127.4-14.68-59.91-36.95-56.46-86.32-57.15,20,39.88,46.78,129.65,52.48,178.16,6,52.66,26.07,73,48,73,22.45,0,47-21.75,60.08-52.14C379.54,258.45,400.08,174.55,400.08,141.75Z"/><path class="cls-1" d="M524.38,107.91c-22.62,0-45.75,8.29-66.12,27.1a100.81,100.81,0,0,1,21.06-2.24c56.28,0,90.81,48.86,107.38,100.65,6.56,20.2,9.32,37.81,9.32,52.82,0,41.09-21.06,62.67-47.64,62.67-52.31,0-93.4-73.89-104.11-136.21a188.38,188.38,0,0,1-3.1-30.9c0-13.81,3.1-19.51,7.59-19.51,12.26,0,34.53,40.4,34.53,72.68a52.32,52.32,0,0,1-1.9,14.85c37-6.22,51.62-27.62,51.62-49.89,0-29.53-25.38-60.6-59-60.6-9.5,0-19.34,2.42-29.7,7.94-29,15.54-44.19,57.66-44.19,95.3,0,81.66,59.39,122.57,119,122.57,59.38,0,118.77-40.91,118.77-122.57C637.8,163.15,582.56,107.91,524.38,107.91Z"/><polygon class="cls-1" points="379.59 331.08 372.74 355.07 354.04 371.58 378.03 378.43 394.54 397.13 401.38 373.14 420.09 356.63 396.1 349.79 379.59 331.08"/><polygon class="cls-1" points="533.54 71.13 540.38 47.14 559.09 30.63 535.1 23.79 518.59 5.08 511.74 29.07 493.04 45.58 517.03 52.42 533.54 71.13"/><polygon class="cls-1" points="579.69 103.23 610.43 138.06 623.17 93.39 658 62.65 613.33 49.91 582.59 15.08 569.85 59.75 535.02 90.49 579.69 103.23"/></g></g></svg>