<svg xmlns="http://www.w3.org/2000/svg" width="430" height="430" fill="none" viewBox="0 0 430 430"><g stroke-linecap="round" stroke-linejoin="round" stroke-miterlimit="10" stroke-width="12"><path stroke="#fff" d="M236.6 219.5h-43v94.1h43zm-53.8 119.599 10.8-25.4h43l10.9 25.4m0-144.999-10.9 25.4h-43l-10.8-25.4m-46 25.4v94.2H93.9v-57.4"/><path stroke="#fff" d="m83 339.099 10.9-25.4h43l10.8 25.4M336.4 219.5h-43v94.1h43zm10.8-25.4-10.8 25.4h-43l-10.9-25.4m0 144.999 10.9-25.4h43l10.8 25.4M153.6 85l60.5-30 161.1 79.3-5.4 26.7H60.5L54 134.3M347.2 161H83v33.1h264.2zm28 213.5H55l16-35.4h288.2z"/><path stroke="#7166ee" d="M199.8 90.1c4.3-3 9.6-4.8 15.3-4.8 14.7 0 26.7 11.9 26.7 26.701 0 14.7-11.9 26.7-26.7 26.7-8.5 0-16-3.9-20.9-10.1"/><path stroke="#fff" d="M375.2 134.301H289M54 134.3l29 4.4 24.4-15.1 17.4 15.1 12-12.1 29.3-5.6-15.3-16.4 2.8-19.6m12.5 36 5.4 17.7m-34.6 80.8-16.8 17.4-1.3 19.4-7.4 17.6-17.5-17.6m17.5 17.6 4.3 12"/><path stroke="#fff" d="m83 194.099 29.8-15.2 2.6-17.9 9.4-22.3m68.8 80.801 21.5 24.4 4.4 23.8-25.9 13.4 21 13.3M83 339.1l14.1 18.4 44.7-.2 14.3 17.2"/><path stroke="#7166ee" d="m199.8 90.1 13.3 14.5-18.9 24"/><path stroke="#fff" d="m115.4 161 35.1 16.5"/></g></svg>