<svg xmlns="http://www.w3.org/2000/svg" viewBox="0 0 398.91 397.21"><defs><style>.cls-1{fill:#104b24;}.cls-2{fill:#cbe82e;}</style></defs><g id="Layer_2" data-name="Layer 2"><g id="Layer_1-2" data-name="Layer 1"><path class="cls-1" d="M398.91,170.59c-4.3,6.75-9.28,14-18.87,15-8,.89-16.21.42-24.32.53-7.89.1-11.11,4.25-11,11.92.08,7.32,2.57,12.23,10.63,12.48a148.75,148.75,0,0,0,16.22,0c12.09-1,23.23,2.52,24.21,15.24,1.22,15.83-12.51,14.29-23.23,14.58-4.5.12-9,0-13.52-.08-8.09-.19-13.94,1.69-14.25,11.62-.29,9.64,4.55,12.67,13.14,12.7,8.12,0,16.24.2,24.34.67,9.3.53,16.27,5.39,15.71,14.86-.52,8.73-7.06,16.09-16.28,14.4-25.75-4.72-40.36,4.86-44.82,30.6a9.41,9.41,0,0,1-5,6.15c-24.79,9.46-41.95,23.08-37.55,53.85,1.15,8.05-9.84,12.7-18.36,12-10.53-.91-6.35-11-8.46-17-4.26-12.29,11-35.44-14.64-35.22-23.89.2-9.8,22.09-12.82,34.06-2,8.06-1.67,17.06-12.28,17.95-12.37,1-12.94-8.62-15.59-17.69-3.48-11.92,11.05-34.1-12.31-34.35s-9.89,22-12.92,34c-2.41,9.5-4.2,18.43-15.76,18-9.89-.34-13-8.43-13.8-17.11-.42-4.48-.05-9-.43-13.5-.78-9.22,3.19-21.58-12.28-22.26-16.22-.7-12.17,11.91-12.86,21.1-.41,5.38-.24,10.8-.59,16.19-.59,9.11-4.35,16.41-14.5,15.79-9.82-.6-13.21-8.18-13.48-17.16-.19-6.3-.31-12.62,0-18.92.46-9.91-1.35-15.88-13.39-18.92-17.75-4.48-33-14.78-35.44-35.43-1.92-16.17-13.87-10.29-22.56-11.28-12.63-1.45-31.26,4.19-31-15.85.24-17.77,17.62-13.25,29.69-14.43,9.5-.93,24,5.07,23.11-13.44-.78-16.23-13.86-10.11-22.52-11.34-6.21-.88-12.68.06-18.86-.89-6.77-1-11.86-5.36-12.18-12.5-.37-8.19,4.3-13.78,12.41-15.15,6.17-1,12.62-.39,18.86-1.13,8.85-1,21.55,4.27,22.12-11.95.59-16.61-11.86-12.05-21-12.55-5.39-.3-10.85.17-16.21-.37C7.37,184.88.07,180.8,0,171.05s7.08-14.12,16.07-14.7,18-.28,27.05-.4c8-.11,10.75-4.52,10.74-12.13s-3.16-11.81-11-11.95c-9-.17-18.07.19-27-.56s-16.11-5.14-15.8-15c.32-9.74,7.74-15.43,16.46-13.92,25.4,4.37,40.82-4,44.84-30.39a6.49,6.49,0,0,1,3.13-4.28C90.19,55.94,111,41.37,105.52,7.76c-.8-4.88,6.76-8,12.5-7.75,7.08.28,12.12,4,12.73,11.42.73,9,.73,18,.94,27,.18,8.09,2.48,14,12.14,14.23,9.21.19,11.65-4.62,13.31-13.06,2.77-14-9-38.84,15.88-38.36,22.38.44,10.77,24.16,13.74,37.55,1.73,7.81,3,13.62,12.63,13.91,11.88.35,11.68-7.62,13.18-16C214.94,23.51,203.1.35,227.49.94c21.13.5,11.31,22.28,13.28,35.12,1.27,8.31.85,16.49,12.6,16.66s12.66-7.6,12.79-16.26c0-1.8-.12-3.61,0-5.4,1.11-11.82-4.32-29.44,13.47-30.35,20.62-1.06,16,18,16.08,30.41.1,13.21,2,21.84,17.8,24.13,14.18,2.06,25.92,11.94,27.82,26.27,2.6,19.68,13.45,22.31,29.74,20.79,11.71-1.09,26.58-1.79,27,14.24.44,16.7-14.81,14.6-26.37,15-4.51.14-9,.17-13.53.15-8.41,0-13.56,2.79-13.48,12.48.09,9.9,5.8,12,13.93,12,9,.08,18.11-.34,27,.79C392.26,157.77,396.59,162.74,398.91,170.59ZM197.38,316.77c28.86,0,57.73.45,86.58-.15,22.45-.46,35.52-17.09,33.69-39.05-3-36.38-6.21-72.65-.26-109.32,3-18.43,2-37.91,0-56.61-2.22-20.82-12-33.91-37.13-32.93-43.22,1.7-86.57.39-129.86.35-69.89-.07-70-.07-69.91,70.71.08,43.95-.12,87.94,1.49,131.85.88,23.73,12.05,38,39.69,35.61C146.72,315.08,172.12,316.77,197.38,316.77Z"/><path class="cls-2" d="M197.38,316.77c-25.26,0-50.66-1.69-75.73.46C94,319.59,82.84,305.35,82,281.62c-1.61-43.91-1.41-87.9-1.49-131.85C80.33,79,80.49,79,150.38,79.06c43.29,0,86.64,1.35,129.86-.35,25.09-1,34.91,12.11,37.13,32.93,2,18.7,3,38.18,0,56.61-5.95,36.67-2.76,72.94.26,109.32,1.83,22-11.24,38.59-33.69,39.05C255.11,317.22,226.24,316.77,197.38,316.77Zm-63.8-61.28c7.5-.44,11-5.73,14.64-10.88,14.37-20.25,36.24-20.9,49.61-1,4.66,6.93,8.56,15.72,18.17,11.24s5.48-14.19,3.19-21.45c-8.37-26.46-17.27-52.76-26.35-79-3.18-9.17-9.71-14.88-20.07-15s-17.22,5.18-20.53,14.37c-10.31,28.62-19.87,57.52-30.32,86.09C117.34,252.32,126.39,252.89,133.58,255.49Zm109-57.19h.13c0,14.28-.16,28.57.07,42.86.1,6.61,2.14,13.17,9.82,13.68,9.68.65,11.54-6.9,11.59-14.45.2-27.68.12-55.37.08-83,0-6.75-1.54-12.61-9.85-13.11-10-.61-11.78,6-11.82,13.88C242.53,171.5,242.58,184.9,242.58,198.3Z"/><path class="cls-1" d="M133.58,255.49c-7.19-2.6-16.24-3.17-11.66-15.69,10.45-28.57,20-57.47,30.32-86.09,3.31-9.19,10.18-14.54,20.53-14.37s16.89,5.88,20.07,15c9.08,26.23,18,52.53,26.35,79,2.29,7.26,6.44,17-3.19,21.45s-13.51-4.31-18.17-11.24c-13.37-19.88-35.24-19.23-49.61,1C144.56,249.76,141.08,255.05,133.58,255.49Zm38.6-77.18c-9,5.46-10.09,14.16-10.53,23-.36,7.46,3,11.89,11,11.7,10.15-.24,11.28-7.1,10.37-14.81S180.82,182.47,172.18,178.31Z"/><path class="cls-1" d="M242.58,198.3c0-13.4-.05-26.8,0-40.19,0-7.87,1.82-14.49,11.82-13.88,8.31.5,9.84,6.36,9.85,13.11,0,27.68.12,55.37-.08,83-.05,7.55-1.91,15.1-11.59,14.45-7.68-.51-9.72-7.07-9.82-13.68-.23-14.29-.07-28.58-.07-42.86Z"/><path class="cls-2" d="M172.18,178.31c8.64,4.16,9.89,12.1,10.81,19.92s-.22,14.57-10.37,14.81c-8,.19-11.33-4.24-11-11.7C162.09,192.47,163.21,183.77,172.18,178.31Z"/></g></g></svg>